# xmcd CD database file
#
# Track frame offsets:
#	150
#	21048
#	42365
#	74178
#	92684
#	114780
#	132033
#	151207
#	168402
#	190718
#	213538
#	236610
#	263787
#	280893
#
# Disc length: 4105 seconds
#
# Revision: 0
# Processed by: cddbd v1.5.2PL0 Copyright (c) Steve Scherf et al.
# Submitted via: CDex 1.70beta1
#
DISCID=bf10070e
DTITLE=Compilation - Pro Jazz Remixes
DYEAR=2006
DGENRE=Jazz
TTITLE0=US3. Cantaloop (Nelee Hooper Remix)
TTITLE1=Grant Green. A Time To Remember (Osunlade Remix)
TTITLE2=Gene Harris. Los Alamitos Latinfunklovesong (Bugs In The Attic Remix)
TTITLE3=Digable Planets. Where I'm From (Remix)
TTITLE4=Bobby Hutcherson. Montara (The Roots Remix)
TTITLE5=Soulive feat.Talib Kweli. Bridge To Bama (Hi Tek Remix (DUB))
TTITLE6=Bob Belden Project feat.Jimi Tunnell. Kiss (Nebreed Funk Mix)
TTITLE7=Gabin. Doo Uap, Doo Uap, Doo Uap by Pigneto Quartet ("If You" Remix)
TTITLE8=Erik Truffaz. Magrouni (Imhotep Remix)
TTITLE9=Shirley Bassey. Light My Fire (Kenny Dope Remix)
TTITLE10=Grant Green feat.Dianne Reeves. Down Here On The Ground (The Ummah Remix)
TTITLE11=Bobby Hutcherson. La Malanga (Kenny Dope Remix)
TTITLE12=Horace Silver. Won't You Open Up Your Sences (4 Hero Remix)
TTITLE13=Donald Byrd. Lansanna's Priestess (DJ Spinna Remix)
EXTD=YEAR: 2006
EXTT0=
EXTT1=
EXTT2=
EXTT3=
EXTT4=
EXTT5=
EXTT6=
EXTT7=
EXTT8=
EXTT9=
EXTT10=
EXTT11=
EXTT12=
EXTT13=
PLAYORDER=
